Coordinates
version=1
nRows=13
nColumns=34
inDegrees=yes

Units are S.I. units (second, meters, Newtons, ...)
Angles are in degrees.

endheader
time	pelvis_tilt	pelvis_list	pelvis_rotation	pelvis_tx	pelvis_ty	pelvis_tz	hip_flexion_r	hip_adduction_r	hip_rotation_r	knee_angle_r	ankle_angle_r	subtalar_angle_r	mtp_angle_r	hip_flexion_l	hip_adduction_l	hip_rotation_l	knee_angle_l	socket_flexion	socket_adduction	socket_rotation	socket_tx	socket_ty	socket_tz	pros_ankle_rx	pros_ankle_ry	pros_ankle_rz	pros_ankle_tx	pros_ankle_ty	pros_ankle_tz	foot_flex	lumbar_extension	lumbar_bending	lumbar_rotation
      0.29583333	      1.41830546	     -6.44904869	      6.17650401	     -0.37211175	      1.04809543	      0.36166643	      9.61719688	      2.13578045	    -15.47629879	    -62.08787906	     -1.03043226	      4.32893957	     13.98376492	     12.63365778	     -5.95979533	      2.95105961	    -11.96924899	      7.28614171	      1.30872534	      3.20416629	      0.06597141	     -0.01416196	     -0.00392870	      0.00000000	      0.00000000	      0.00000000	      0.00000000	      0.00000000	      0.00000000	      1.11231518	    -14.54832153	     -2.41551206	    -24.91772020
      0.30000000	      1.48330191	     -6.53176775	      6.23155834	     -0.36672491	      1.04894189	      0.36135346	     10.10643923	      2.16287188	    -15.58944053	    -61.90206207	     -0.16819919	      4.40880165	     13.99104124	     12.14239892	     -6.06500460	      2.96889632	    -11.85829550	      7.16348159	      1.32189909	      3.22274143	      0.06586084	     -0.01424457	     -0.00356234	      0.00000000	      0.00000000	      0.00000000	      0.00000000	      0.00000000	      0.00000000	      1.21897741	    -14.54724733	     -2.27094889	    -25.06156861
      0.30416667	      1.53947716	     -6.61205385	      6.28408626	     -0.36127363	      1.04976313	      0.36106399	     10.58159978	      2.18726334	    -15.71472566	    -61.64756807	      0.61476736	      4.44520052	     14.00839313	     11.64511748	     -6.18171569	      2.97122660	    -11.74323401	      7.04055771	      1.33259250	      3.22367592	      0.06567156	     -0.01436282	     -0.00340705	      0.00000000	      0.00000000	      0.00000000	      0.00000000	      0.00000000	      0.00000000	      1.32878356	    -14.51011505	     -2.10171270	    -25.18536844
      0.30833333	      1.61743927	     -6.67877476	      6.39990776	     -0.35590215	      1.05054445	      0.36056688	     11.02063199	      2.10300685	    -15.97599911	    -61.39379825	      1.60398097	      5.06379589	     13.68544491	     11.16233288	     -6.24408181	      3.04107078	    -11.65541984	      6.89268146	      1.41480173	      3.25824577	      0.06573580	     -0.01444785	     -0.00256606	      0.00000000	      0.00000000	      0.00000000	      0.00000000	      0.00000000	      0.00000000	      1.41674970	    -14.59252904	     -1.96692579	    -25.43496329
      0.31250000	      1.65930232	     -6.75374372	      6.44288316	     -0.35050060	      1.05132531	      0.36029566	     11.48866857	      2.13380969	    -16.08008990	    -61.01740914	      2.23280203	      4.98298031	     13.70291613	     10.68935895	     -6.33589600	      3.03397669	    -11.54399021	      6.77499635	      1.40663332	      3.24662299	      0.06562968	     -0.01450052	     -0.00216710	      0.00000000	      0.00000000	      0.00000000	      0.00000000	      0.00000000	      0.00000000	      1.52483538	    -14.53308501	     -1.82107191	    -25.51714622
      0.31666667	      1.69658199	     -6.86797406	      6.49023743	     -0.34516372	      1.05209710	      0.36005569	     11.95535591	      2.22333555	    -16.17676234	    -60.58998150	      2.97545265	      4.99150964	     13.71785573	     10.23571434	     -6.49344770	      3.03432330	    -11.43550472	      6.66047284	      1.40369860	      3.28284682	      0.06543358	     -0.01451621	     -0.00210448	      0.00000000	      0.00000000	      0.00000000	      0.00000000	      0.00000000	      0.00000000	      1.62715438	    -14.51441240	     -1.65160484	    -25.63985606
      0.32083333	      1.71828292	     -6.95573955	      6.54089854	     -0.33985162	      1.05281471	      0.35978190	     12.42634846	      2.26563819	    -16.29298121	    -60.11440849	      3.52651280	      5.02556106	     13.71805745	      9.80213991	     -6.60653127	      3.02143624	    -11.32860980	      6.54801957	      1.40058170	      3.29867999	      0.06534281	     -0.01453582	     -0.00183015	      0.00000000	      0.00000000	      0.00000000	      0.00000000	      0.00000000	      0.00000000	      1.73068065	    -14.51594601	     -1.50446545	    -25.73449394
      0.32500000	      1.75943119	     -7.07181493	      6.59458714	     -0.33451238	      1.05354812	      0.35953442	     12.85181554	      2.34795240	    -16.41815914	    -59.57697318	      4.20767368	      5.10014315	     13.71306436	      9.34752401	     -6.75997040	      3.01672629	    -11.22569861	      6.44036330	      1.40005269	      3.33818153	      0.06511853	     -0.01457375	     -0.00161066	      0.00000000	      0.00000000	      0.00000000	      0.00000000	      0.00000000	      0.00000000	      1.82620506	    -14.47222326	     -1.31760431	    -25.86220267
      0.32916667	      1.86242108	     -7.22184285	      6.69765516	     -0.32926182	      1.05433645	      0.35920680	     13.18965299	      2.42653524	    -16.65087692	    -58.97921272	      4.88823327	      5.52872806	     13.47139605	      8.87677713	     -6.96874074	      3.02639177	    -11.13973858	      6.32124654	      1.44326729	      3.44300774	      0.06525390	     -0.01455271	     -0.00148671	      0.00000000	      0.00000000	      0.00000000	      0.00000000	      0.00000000	      0.00000000	      1.91423622	    -14.63097398	     -1.01477566	    -26.10070758
      0.33333333	      1.88198615	     -7.27408387	      6.75431940	     -0.32391791	      1.05500116	      0.35893618	     13.60769424	      2.42777659	    -16.77973016	    -58.36113382	      5.36969166	      5.50003847	     13.44664996	      8.42149062	     -7.02304454	      3.02186091	    -11.02544586	      6.20427241	      1.43728778	      3.42426688	      0.06491115	     -0.01454300	     -0.00086346	      0.00000000	      0.00000000	      0.00000000	      0.00000000	      0.00000000	      0.00000000	      2.01809465	    -14.53453132	     -0.95565492	    -26.16261507
      0.33750000	      1.92666453	     -7.41188798	      6.82217868	     -0.31862860	      1.05565855	      0.35871888	     13.99538016	      2.53527183	    -16.93380666	    -57.69039952	      5.98090370	      5.60664930	     13.36465420	      7.97855090	     -7.21557674	      2.99754597	    -10.92302744	      6.09176982	      1.43976024	      3.49644193	      0.06478444	     -0.01457339	     -0.00078127	      0.00000000	      0.00000000	      0.00000000	      0.00000000	      0.00000000	      0.00000000	      2.11561299	    -14.52555648	     -0.74394908	    -26.31872636
      0.34166667	      1.95654526	     -7.49906353	      6.88532092	     -0.31330826	      1.05631774	      0.35851087	     14.36247072	      2.59274530	    -17.07379934	    -56.95060682	      6.43999727	      5.67789751	     13.28056141	      7.53922427	     -7.34032039	      2.98918151	    -10.81483288	      5.97548954	      1.44094276	      3.53646456	      0.06465215	     -0.01443600	     -0.00054613	      0.00000000	      0.00000000	      0.00000000	      0.00000000	      0.00000000	      0.00000000	      2.21903886	    -14.49750664	     -0.59398137	    -26.43420325
      0.34583333	      1.93540792	     -7.52708860	      6.92522350	     -0.30815126	      1.05682715	      0.35831741	     14.81880748	      2.56441238	    -17.18699907	    -56.23997586	      6.73771323	      5.68905956	     13.24601934	      7.17282284	     -7.36956803	      2.96687214	    -10.72295139	      5.87989372	      1.43498044	      3.52937267	      0.06460507	     -0.01427734	      0.00000494	      0.00000000	      0.00000000	      0.00000000	      0.00000000	      0.00000000	      0.00000000	      2.30894762	    -14.53755532	     -0.51314482	    -26.49145974
